<svg width="99" height="92" viewBox="0 0 99 92" fill="none" xmlns="http://www.w3.org/2000/svg">
<rect width="99" height="92" fill="white"/>
<path d="M62.6535 18C62.5765 19.1529 62.3906 20.4244 62.123 21.7646C65.6356 25.4697 68.7165 29.5897 71.2828 34.0433C76.6874 43.4224 79.6743 54.0369 79.9664 64.8487C79.3823 65.1674 78.7944 65.477 78.204 65.7776H66.2202V68.9278L71.0896 68.907C63.9013 71.5911 56.4168 72.985 48.9997 72.985C41.5821 72.985 34.0981 71.5911 26.9099 68.907L31.7792 68.9278V65.7776H19.7955C19.205 65.477 18.6172 65.1679 18.0331 64.8487C18.3246 54.0369 21.3121 43.4219 26.7166 34.0433C29.283 29.5891 32.3644 25.4697 35.8765 21.7646C35.6088 20.4244 35.423 19.1529 35.346 18C22.4994 30.6463 15 48.0883 15 66.6012C25.5197 72.6865 37.2597 76 48.9997 76C60.7397 76 72.4803 72.6865 83 66.6012C82.9995 48.0877 75.5006 30.6458 62.6535 18Z" fill="#32251F"/>
<path d="M16.3982 84L15.205 79.6364H15.7419L16.6539 83.1903H16.6965L17.6254 79.6364H18.222L19.151 83.1903H19.1936L20.1056 79.6364H20.6425L19.4493 84H18.9039L17.9408 80.5227H17.9067L16.9436 84H16.3982ZM22.3002 84.0682C21.9848 84.0682 21.7128 83.9986 21.4841 83.8594C21.2568 83.7188 21.0814 83.5227 20.9578 83.2713C20.8357 83.0185 20.7746 82.7244 20.7746 82.3892C20.7746 82.054 20.8357 81.7585 20.9578 81.5028C21.0814 81.2457 21.2533 81.0455 21.4735 80.902C21.695 80.7571 21.9536 80.6847 22.249 80.6847C22.4195 80.6847 22.5878 80.7131 22.754 80.7699C22.9202 80.8267 23.0715 80.919 23.2078 81.0469C23.3442 81.1733 23.4529 81.3409 23.5338 81.5497C23.6148 81.7585 23.6553 82.0156 23.6553 82.321V82.5341H21.1325V82.0994H23.1439C23.1439 81.9148 23.107 81.75 23.0331 81.6051C22.9607 81.4602 22.857 81.3459 22.722 81.2621C22.5885 81.1783 22.4308 81.1364 22.249 81.1364C22.0487 81.1364 21.8754 81.1861 21.7291 81.2855C21.5843 81.3835 21.4727 81.5114 21.3946 81.669C21.3165 81.8267 21.2774 81.9957 21.2774 82.1761V82.4659C21.2774 82.7131 21.32 82.9226 21.4053 83.0945C21.4919 83.2649 21.6119 83.3949 21.7654 83.4844C21.9188 83.5724 22.097 83.6165 22.3002 83.6165C22.4323 83.6165 22.5516 83.598 22.6581 83.5611C22.7661 83.5227 22.8591 83.4659 22.9372 83.3906C23.0154 83.3139 23.0757 83.2187 23.1183 83.1051L23.6041 83.2415C23.553 83.4062 23.4671 83.5511 23.3463 83.6761C23.2256 83.7997 23.0764 83.8963 22.8989 83.9659C22.7213 84.0341 22.5218 84.0682 22.3002 84.0682ZM26.1077 85.2273V80.7273H26.5935V81.2472H26.6531C26.6901 81.1903 26.7412 81.1179 26.8066 81.0298C26.8733 80.9403 26.9685 80.8608 27.0921 80.7912C27.2171 80.7202 27.3861 80.6847 27.5992 80.6847C27.8747 80.6847 28.1176 80.7536 28.3279 80.8913C28.5381 81.0291 28.7021 81.2244 28.82 81.4773C28.9379 81.7301 28.9969 82.0284 28.9969 82.3722C28.9969 82.7188 28.9379 83.0192 28.82 83.2734C28.7021 83.5263 28.5388 83.7223 28.33 83.8615C28.1212 83.9993 27.8804 84.0682 27.6077 84.0682C27.3975 84.0682 27.2291 84.0334 27.1027 83.9638C26.9763 83.8928 26.879 83.8125 26.8108 83.723C26.7426 83.6321 26.6901 83.5568 26.6531 83.4972H26.6105V85.2273H26.1077ZM26.602 82.3636C26.602 82.6108 26.6382 82.8288 26.7107 83.0178C26.7831 83.2053 26.8889 83.3523 27.0281 83.4588C27.1673 83.5639 27.3378 83.6165 27.5395 83.6165C27.7497 83.6165 27.9252 83.5611 28.0658 83.4503C28.2078 83.3381 28.3144 83.1875 28.3854 82.9986C28.4578 82.8082 28.4941 82.5966 28.4941 82.3636C28.4941 82.1335 28.4585 81.9261 28.3875 81.7415C28.3179 81.5554 28.2121 81.4084 28.07 81.3004C27.9294 81.1911 27.7526 81.1364 27.5395 81.1364C27.335 81.1364 27.1631 81.1882 27.0239 81.2919C26.8847 81.3942 26.7796 81.5376 26.7085 81.7223C26.6375 81.9055 26.602 82.1193 26.602 82.3636ZM29.7639 84V80.7273H30.2497V81.2216H30.2838C30.3435 81.0597 30.4514 80.9283 30.6077 80.8274C30.7639 80.7266 30.9401 80.6761 31.1361 80.6761C31.173 80.6761 31.2192 80.6768 31.2746 80.6783C31.33 80.6797 31.3719 80.6818 31.4003 80.6847V81.196C31.3833 81.1918 31.3442 81.1854 31.2831 81.1768C31.2235 81.1669 31.1602 81.1619 31.0935 81.1619C30.9344 81.1619 30.7923 81.1953 30.6673 81.2621C30.5438 81.3274 30.4458 81.4183 30.3733 81.5348C30.3023 81.6499 30.2668 81.7812 30.2668 81.929V84H29.7639ZM33.2263 84.0682C32.9308 84.0682 32.6716 83.9979 32.4486 83.8572C32.227 83.7166 32.0537 83.5199 31.9287 83.267C31.8051 83.0142 31.7433 82.7187 31.7433 82.3807C31.7433 82.0398 31.8051 81.7422 31.9287 81.4879C32.0537 81.2337 32.227 81.0362 32.4486 80.8956C32.6716 80.755 32.9308 80.6847 33.2263 80.6847C33.5218 80.6847 33.7803 80.755 34.0019 80.8956C34.2249 81.0362 34.3982 81.2337 34.5218 81.4879C34.6468 81.7422 34.7093 82.0398 34.7093 82.3807C34.7093 82.7187 34.6468 83.0142 34.5218 83.267C34.3982 83.5199 34.2249 83.7166 34.0019 83.8572C33.7803 83.9979 33.5218 84.0682 33.2263 84.0682ZM33.2263 83.6165C33.4507 83.6165 33.6354 83.5589 33.7803 83.4439C33.9252 83.3288 34.0324 83.1776 34.102 82.9901C34.1716 82.8026 34.2064 82.5994 34.2064 82.3807C34.2064 82.1619 34.1716 81.9581 34.102 81.7692C34.0324 81.5803 33.9252 81.4276 33.7803 81.3111C33.6354 81.1946 33.4507 81.1364 33.2263 81.1364C33.0019 81.1364 32.8172 81.1946 32.6723 81.3111C32.5274 81.4276 32.4202 81.5803 32.3506 81.7692C32.281 81.9581 32.2462 82.1619 32.2462 82.3807C32.2462 82.5994 32.281 82.8026 32.3506 82.9901C32.4202 83.1776 32.5274 83.3288 32.6723 83.4439C32.8172 83.5589 33.0019 83.6165 33.2263 83.6165ZM35.4768 84V80.7273H35.9626V81.2386H36.0052C36.0734 81.0639 36.1835 80.9283 36.3355 80.8317C36.4875 80.7337 36.67 80.6847 36.8831 80.6847C37.099 80.6847 37.2787 80.7337 37.4221 80.8317C37.567 80.9283 37.68 81.0639 37.7609 81.2386H37.795C37.8788 81.0696 38.0045 80.9354 38.1721 80.8359C38.3398 80.7351 38.5407 80.6847 38.7751 80.6847C39.0677 80.6847 39.3071 80.7763 39.4932 80.9595C39.6792 81.1413 39.7723 81.4247 39.7723 81.8097V84H39.2694V81.8097C39.2694 81.5682 39.2034 81.3956 39.0713 81.2919C38.9392 81.1882 38.7836 81.1364 38.6047 81.1364C38.3746 81.1364 38.1963 81.206 38.0699 81.3452C37.9434 81.483 37.8802 81.6577 37.8802 81.8693V84H37.3689V81.7585C37.3689 81.5724 37.3085 81.4226 37.1878 81.3089C37.067 81.1939 36.9115 81.1364 36.7211 81.1364C36.5905 81.1364 36.4683 81.1712 36.3547 81.2408C36.2425 81.3104 36.1515 81.407 36.0819 81.5305C36.0138 81.6527 35.9797 81.794 35.9797 81.9545V84H35.4768ZM40.6917 84V80.7273H41.1945V84H40.6917ZM40.9474 80.1818C40.8493 80.1818 40.7648 80.1484 40.6938 80.0817C40.6242 80.0149 40.5894 79.9347 40.5894 79.8409C40.5894 79.7472 40.6242 79.6669 40.6938 79.6001C40.7648 79.5334 40.8493 79.5 40.9474 79.5C41.0454 79.5 41.1292 79.5334 41.1988 79.6001C41.2698 79.6669 41.3053 79.7472 41.3053 79.8409C41.3053 79.9347 41.2698 80.0149 41.1988 80.0817C41.1292 80.1484 41.0454 80.1818 40.9474 80.1818ZM44.4337 81.4602L43.982 81.5881C43.9536 81.5128 43.9117 81.4396 43.8563 81.3686C43.8023 81.2962 43.7284 81.2365 43.6347 81.1896C43.5409 81.1428 43.4209 81.1193 43.2746 81.1193C43.0743 81.1193 42.9074 81.1655 42.7739 81.2578C42.6418 81.3487 42.5757 81.4645 42.5757 81.6051C42.5757 81.7301 42.6212 81.8288 42.7121 81.9013C42.803 81.9737 42.945 82.0341 43.1382 82.0824L43.624 82.2017C43.9166 82.2727 44.1347 82.3814 44.2781 82.5277C44.4216 82.6726 44.4933 82.8594 44.4933 83.0881C44.4933 83.2756 44.4394 83.4432 44.3314 83.5909C44.2249 83.7386 44.0757 83.8551 43.884 83.9403C43.6922 84.0256 43.4692 84.0682 43.2149 84.0682C42.8811 84.0682 42.6048 83.9957 42.3861 83.8509C42.1673 83.706 42.0289 83.4943 41.9706 83.2159L42.4479 83.0966C42.4933 83.2727 42.5793 83.4048 42.7057 83.4929C42.8335 83.581 43.0004 83.625 43.2064 83.625C43.4408 83.625 43.6269 83.5753 43.7646 83.4759C43.9039 83.375 43.9735 83.2543 43.9735 83.1136C43.9735 83 43.9337 82.9048 43.8541 82.8281C43.7746 82.75 43.6524 82.6918 43.4877 82.6534L42.9422 82.5256C42.6425 82.4545 42.4223 82.3445 42.2817 82.1953C42.1425 82.0447 42.0729 81.8565 42.0729 81.6307C42.0729 81.446 42.1247 81.2827 42.2284 81.1406C42.3335 80.9986 42.4763 80.8871 42.6567 80.8061C42.8385 80.7251 43.0445 80.6847 43.2746 80.6847C43.5985 80.6847 43.8527 80.7557 44.0374 80.8977C44.2235 81.0398 44.3556 81.2273 44.4337 81.4602ZM46.6224 84.0682C46.3071 84.0682 46.0351 83.9986 45.8064 83.8594C45.5791 83.7188 45.4037 83.5227 45.2801 83.2713C45.1579 83.0185 45.0969 82.7244 45.0969 82.3892C45.0969 82.054 45.1579 81.7585 45.2801 81.5028C45.4037 81.2457 45.5756 81.0455 45.7957 80.902C46.0173 80.7571 46.2758 80.6847 46.5713 80.6847C46.7417 80.6847 46.9101 80.7131 47.0763 80.7699C47.2425 80.8267 47.3937 80.919 47.5301 81.0469C47.6665 81.1733 47.7751 81.3409 47.8561 81.5497C47.9371 81.7585 47.9775 82.0156 47.9775 82.321V82.5341H45.4548V82.0994H47.4662C47.4662 81.9148 47.4292 81.75 47.3554 81.6051C47.2829 81.4602 47.1792 81.3459 47.0443 81.2621C46.9108 81.1783 46.7531 81.1364 46.5713 81.1364C46.371 81.1364 46.1977 81.1861 46.0514 81.2855C45.9065 81.3835 45.795 81.5114 45.7169 81.669C45.6388 81.8267 45.5997 81.9957 45.5997 82.1761V82.4659C45.5997 82.7131 45.6423 82.9226 45.7275 83.0945C45.8142 83.2649 45.9342 83.3949 46.0876 83.4844C46.241 83.5724 46.4193 83.6165 46.6224 83.6165C46.7545 83.6165 46.8738 83.598 46.9804 83.5611C47.0883 83.5227 47.1814 83.4659 47.2595 83.3906C47.3376 83.3139 47.398 83.2187 47.4406 83.1051L47.9264 83.2415C47.8753 83.4062 47.7893 83.5511 47.6686 83.6761C47.5479 83.7997 47.3987 83.8963 47.2211 83.9659C47.0436 84.0341 46.844 84.0682 46.6224 84.0682ZM50.7538 85.2273C50.6686 85.2273 50.5926 85.2202 50.5258 85.206C50.4591 85.1932 50.4129 85.1804 50.3873 85.1676L50.5152 84.7244C50.6373 84.7557 50.7453 84.767 50.839 84.7585C50.9328 84.75 51.0159 84.7081 51.0883 84.6328C51.1622 84.5589 51.2297 84.4389 51.2907 84.2727L51.3845 84.017L50.1743 80.7273H50.7197L51.6231 83.3352H51.6572L52.5606 80.7273H53.1061L51.7169 84.4773C51.6544 84.6463 51.577 84.7862 51.4846 84.897C51.3923 85.0092 51.2851 85.0923 51.1629 85.1463C51.0422 85.2003 50.9058 85.2273 50.7538 85.2273ZM54.9822 84.0682C54.6867 84.0682 54.4275 83.9979 54.2045 83.8572C53.9829 83.7166 53.8096 83.5199 53.6846 83.267C53.561 83.0142 53.4992 82.7187 53.4992 82.3807C53.4992 82.0398 53.561 81.7422 53.6846 81.4879C53.8096 81.2337 53.9829 81.0362 54.2045 80.8956C54.4275 80.755 54.6867 80.6847 54.9822 80.6847C55.2776 80.6847 55.5361 80.755 55.7577 80.8956C55.9807 81.0362 56.154 81.2337 56.2776 81.4879C56.4026 81.7422 56.4651 82.0398 56.4651 82.3807C56.4651 82.7187 56.4026 83.0142 56.2776 83.267C56.154 83.5199 55.9807 83.7166 55.7577 83.8572C55.5361 83.9979 55.2776 84.0682 54.9822 84.0682ZM54.9822 83.6165C55.2066 83.6165 55.3912 83.5589 55.5361 83.4439C55.681 83.3288 55.7883 83.1776 55.8579 82.9901C55.9275 82.8026 55.9623 82.5994 55.9623 82.3807C55.9623 82.1619 55.9275 81.9581 55.8579 81.7692C55.7883 81.5803 55.681 81.4276 55.5361 81.3111C55.3912 81.1946 55.2066 81.1364 54.9822 81.1364C54.7577 81.1364 54.5731 81.1946 54.4282 81.3111C54.2833 81.4276 54.176 81.5803 54.1064 81.7692C54.0368 81.9581 54.002 82.1619 54.002 82.3807C54.002 82.5994 54.0368 82.8026 54.1064 82.9901C54.176 83.1776 54.2833 83.3288 54.4282 83.4439C54.5731 83.5589 54.7577 83.6165 54.9822 83.6165ZM59.2952 82.6619V80.7273H59.798V84H59.2952V83.446H59.2611C59.1844 83.6122 59.0651 83.7536 58.9031 83.87C58.7412 83.9851 58.5367 84.0426 58.2895 84.0426C58.085 84.0426 57.9031 83.9979 57.7441 83.9084C57.585 83.8175 57.46 83.6811 57.3691 83.4993C57.2781 83.3161 57.2327 83.0852 57.2327 82.8068V80.7273H57.7355V82.7727C57.7355 83.0114 57.8023 83.2017 57.9358 83.3438C58.0708 83.4858 58.2426 83.5568 58.4514 83.5568C58.5764 83.5568 58.7036 83.5249 58.8328 83.4609C58.9635 83.397 59.0729 83.299 59.161 83.1669C59.2504 83.0348 59.2952 82.8665 59.2952 82.6619ZM60.719 84V80.7273H61.2048V81.2216H61.2389C61.2986 81.0597 61.4065 80.9283 61.5628 80.8274C61.719 80.7266 61.8952 80.6761 62.0912 80.6761C62.1281 80.6761 62.1743 80.6768 62.2297 80.6783C62.2851 80.6797 62.327 80.6818 62.3554 80.6847V81.196C62.3383 81.1918 62.2993 81.1854 62.2382 81.1768C62.1785 81.1669 62.1153 81.1619 62.0486 81.1619C61.8895 81.1619 61.7474 81.1953 61.6224 81.2621C61.4988 81.3274 61.4008 81.4183 61.3284 81.5348C61.2574 81.6499 61.2219 81.7812 61.2219 81.929V84H60.719ZM65.9685 84.0682C65.6617 84.0682 65.3975 83.9957 65.1759 83.8509C64.9543 83.706 64.7838 83.5064 64.6645 83.2521C64.5452 82.9979 64.4855 82.7074 64.4855 82.3807C64.4855 82.0483 64.5466 81.755 64.6688 81.5007C64.7923 81.245 64.9642 81.0455 65.1844 80.902C65.406 80.7571 65.6645 80.6847 65.96 80.6847C66.1901 80.6847 66.3975 80.7273 66.5821 80.8125C66.7668 80.8977 66.9181 81.017 67.036 81.1705C67.1539 81.3239 67.227 81.5028 67.2554 81.7074H66.7526C66.7142 81.5582 66.629 81.4261 66.4969 81.3111C66.3662 81.1946 66.1901 81.1364 65.9685 81.1364C65.7725 81.1364 65.6006 81.1875 65.4529 81.2898C65.3066 81.3906 65.1922 81.5334 65.1098 81.718C65.0289 81.9013 64.9884 82.1165 64.9884 82.3636C64.9884 82.6165 65.0281 82.8366 65.1077 83.0241C65.1887 83.2116 65.3023 83.3572 65.4486 83.4609C65.5963 83.5646 65.7696 83.6165 65.9685 83.6165C66.0992 83.6165 66.2178 83.5938 66.3243 83.5483C66.4308 83.5028 66.521 83.4375 66.5949 83.3523C66.6688 83.267 66.7213 83.1648 66.7526 83.0455H67.2554C67.227 83.2386 67.1567 83.4126 67.0445 83.5675C66.9337 83.7209 66.7867 83.843 66.6034 83.9339C66.4216 84.0234 66.21 84.0682 65.9685 84.0682ZM68.4933 82.0312V84H67.9905V79.6364H68.4933V81.2386H68.536C68.6127 81.0696 68.7277 80.9354 68.8811 80.8359C69.036 80.7351 69.2419 80.6847 69.499 80.6847C69.722 80.6847 69.9173 80.7294 70.085 80.8189C70.2526 80.907 70.3825 81.0426 70.4749 81.2259C70.5686 81.4077 70.6155 81.6392 70.6155 81.9205V84H70.1127V81.9545C70.1127 81.6946 70.0452 81.4936 69.9102 81.3516C69.7767 81.2081 69.5914 81.1364 69.3541 81.1364C69.1894 81.1364 69.0416 81.1712 68.911 81.2408C68.7817 81.3104 68.6794 81.4119 68.6041 81.5455C68.5303 81.679 68.4933 81.8409 68.4933 82.0312ZM72.865 84.0682C72.5695 84.0682 72.3103 83.9979 72.0873 83.8572C71.8657 83.7166 71.6924 83.5199 71.5674 83.267C71.4438 83.0142 71.382 82.7187 71.382 82.3807C71.382 82.0398 71.4438 81.7422 71.5674 81.4879C71.6924 81.2337 71.8657 81.0362 72.0873 80.8956C72.3103 80.755 72.5695 80.6847 72.865 80.6847C73.1604 80.6847 73.4189 80.755 73.6405 80.8956C73.8635 81.0362 74.0368 81.2337 74.1604 81.4879C74.2854 81.7422 74.3479 82.0398 74.3479 82.3807C74.3479 82.7187 74.2854 83.0142 74.1604 83.267C74.0368 83.5199 73.8635 83.7166 73.6405 83.8572C73.4189 83.9979 73.1604 84.0682 72.865 84.0682ZM72.865 83.6165C73.0894 83.6165 73.2741 83.5589 73.4189 83.4439C73.5638 83.3288 73.6711 83.1776 73.7407 82.9901C73.8103 82.8026 73.8451 82.5994 73.8451 82.3807C73.8451 82.1619 73.8103 81.9581 73.7407 81.7692C73.6711 81.5803 73.5638 81.4276 73.4189 81.3111C73.2741 81.1946 73.0894 81.1364 72.865 81.1364C72.6405 81.1364 72.4559 81.1946 72.311 81.3111C72.1661 81.4276 72.0589 81.5803 71.9893 81.7692C71.9197 81.9581 71.8849 82.1619 71.8849 82.3807C71.8849 82.5994 71.9197 82.8026 71.9893 82.9901C72.0589 83.1776 72.1661 83.3288 72.311 83.4439C72.4559 83.5589 72.6405 83.6165 72.865 83.6165ZM75.1155 84V80.7273H75.6183V84H75.1155ZM75.3712 80.1818C75.2732 80.1818 75.1887 80.1484 75.1176 80.0817C75.048 80.0149 75.0132 79.9347 75.0132 79.8409C75.0132 79.7472 75.048 79.6669 75.1176 79.6001C75.1887 79.5334 75.2732 79.5 75.3712 79.5C75.4692 79.5 75.553 79.5334 75.6226 79.6001C75.6936 79.6669 75.7291 79.7472 75.7291 79.8409C75.7291 79.9347 75.6936 80.0149 75.6226 80.0817C75.553 80.1484 75.4692 80.1818 75.3712 80.1818ZM77.8689 84.0682C77.5621 84.0682 77.2979 83.9957 77.0763 83.8509C76.8547 83.706 76.6842 83.5064 76.5649 83.2521C76.4456 82.9979 76.3859 82.7074 76.3859 82.3807C76.3859 82.0483 76.447 81.755 76.5692 81.5007C76.6927 81.245 76.8646 81.0455 77.0848 80.902C77.3064 80.7571 77.5649 80.6847 77.8604 80.6847C78.0905 80.6847 78.2979 80.7273 78.4825 80.8125C78.6672 80.8977 78.8184 81.017 78.9363 81.1705C79.0542 81.3239 79.1274 81.5028 79.1558 81.7074H78.653C78.6146 81.5582 78.5294 81.4261 78.3973 81.3111C78.2666 81.1946 78.0905 81.1364 77.8689 81.1364C77.6729 81.1364 77.501 81.1875 77.3532 81.2898C77.2069 81.3906 77.0926 81.5334 77.0102 81.718C76.9292 81.9013 76.8888 82.1165 76.8888 82.3636C76.8888 82.6165 76.9285 82.8366 77.0081 83.0241C77.089 83.2116 77.2027 83.3572 77.349 83.4609C77.4967 83.5646 77.67 83.6165 77.8689 83.6165C77.9996 83.6165 78.1182 83.5938 78.2247 83.5483C78.3312 83.5028 78.4214 83.4375 78.4953 83.3523C78.5692 83.267 78.6217 83.1648 78.653 83.0455H79.1558C79.1274 83.2386 79.0571 83.4126 78.9449 83.5675C78.8341 83.7209 78.6871 83.843 78.5038 83.9339C78.322 84.0234 78.1104 84.0682 77.8689 84.0682ZM81.2631 84.0682C80.9477 84.0682 80.6757 83.9986 80.447 83.8594C80.2197 83.7188 80.0443 83.5227 79.9207 83.2713C79.7986 83.0185 79.7375 82.7244 79.7375 82.3892C79.7375 82.054 79.7986 81.7585 79.9207 81.5028C80.0443 81.2457 80.2162 81.0455 80.4363 80.902C80.6579 80.7571 80.9165 80.6847 81.2119 80.6847C81.3824 80.6847 81.5507 80.7131 81.7169 80.7699C81.8831 80.8267 82.0344 80.919 82.1707 81.0469C82.3071 81.1733 82.4157 81.3409 82.4967 81.5497C82.5777 81.7585 82.6182 82.0156 82.6182 82.321V82.5341H80.0954V82.0994H82.1068C82.1068 81.9148 82.0699 81.75 81.996 81.6051C81.9236 81.4602 81.8199 81.3459 81.6849 81.2621C81.5514 81.1783 81.3937 81.1364 81.2119 81.1364C81.0116 81.1364 80.8383 81.1861 80.692 81.2855C80.5471 81.3835 80.4356 81.5114 80.3575 81.669C80.2794 81.8267 80.2403 81.9957 80.2403 82.1761V82.4659C80.2403 82.7131 80.2829 82.9226 80.3682 83.0945C80.4548 83.2649 80.5748 83.3949 80.7282 83.4844C80.8817 83.5724 81.0599 83.6165 81.2631 83.6165C81.3952 83.6165 81.5145 83.598 81.621 83.5611C81.729 83.5227 81.822 83.4659 81.9001 83.3906C81.9782 83.3139 82.0386 83.2187 82.0812 83.1051L82.567 83.2415C82.5159 83.4062 82.43 83.5511 82.3092 83.6761C82.1885 83.7997 82.0393 83.8963 81.8618 83.9659C81.6842 84.0341 81.4846 84.0682 81.2631 84.0682Z" fill="#32251F"/>
<path d="M31.2737 70V61.2727H34.768C35.41 61.2727 35.9456 61.3679 36.3745 61.5582C36.8035 61.7486 37.126 62.0128 37.3419 62.3509C37.5578 62.6861 37.6657 63.0724 37.6657 63.5099C37.6657 63.8509 37.5975 64.1506 37.4612 64.4091C37.3248 64.6648 37.1373 64.875 36.8987 65.0398C36.6629 65.2017 36.393 65.3168 36.089 65.3849V65.4702C36.4214 65.4844 36.7325 65.5781 37.0223 65.7514C37.3149 65.9247 37.5521 66.1676 37.7339 66.4801C37.9157 66.7898 38.0066 67.1591 38.0066 67.5881C38.0066 68.0511 37.8916 68.4645 37.6615 68.8281C37.4342 69.1889 37.0975 69.4744 36.6515 69.6847C36.2055 69.8949 35.6558 70 35.0024 70H31.2737ZM33.1188 68.4915H34.6231C35.1373 68.4915 35.5123 68.3935 35.7481 68.1974C35.9839 67.9986 36.1018 67.7344 36.1018 67.4048C36.1018 67.1634 36.0436 66.9503 35.9271 66.7656C35.8106 66.581 35.6444 66.4361 35.4285 66.331C35.2154 66.2259 34.9612 66.1733 34.6657 66.1733H33.1188V68.4915ZM33.1188 64.9247H34.4867C34.7396 64.9247 34.964 64.8807 35.16 64.7926C35.3589 64.7017 35.5152 64.5739 35.6288 64.4091C35.7453 64.2443 35.8035 64.0469 35.8035 63.8168C35.8035 63.5014 35.6913 63.2472 35.4669 63.054C35.2453 62.8608 34.9299 62.7642 34.5208 62.7642H33.1188V64.9247ZM38.9673 70V61.2727H44.848V62.794H40.8124V64.8736H44.5454V66.3949H40.8124V68.4787H44.865V70H38.9673ZM47.5792 70H45.6019L48.6147 61.2727H50.9925L54.0011 70H52.0238L49.8377 63.267H49.7695L47.5792 70ZM47.4556 66.5696H52.1261V68.0099H47.4556V66.5696ZM54.8115 70V61.2727H56.6567V68.4787H60.3981V70H54.8115ZM66.1145 63.7827C66.0804 63.4389 65.9341 63.1719 65.6755 62.9815C65.417 62.7912 65.0662 62.696 64.623 62.696C64.3218 62.696 64.0676 62.7386 63.8602 62.8239C63.6528 62.9062 63.4937 63.0213 63.3829 63.169C63.275 63.3168 63.221 63.4844 63.221 63.6719C63.2153 63.8281 63.248 63.9645 63.319 64.081C63.3929 64.1974 63.4937 64.2983 63.6216 64.3835C63.7494 64.4659 63.8971 64.5384 64.0647 64.6009C64.2324 64.6605 64.4113 64.7116 64.6017 64.7543L65.3858 64.9418C65.7664 65.027 66.1159 65.1406 66.4341 65.2827C66.7522 65.4247 67.0278 65.5994 67.2608 65.8068C67.4937 66.0142 67.6741 66.2585 67.802 66.5398C67.9326 66.821 67.9994 67.1435 68.0022 67.5071C67.9994 68.0412 67.863 68.5043 67.5932 68.8963C67.3261 69.2855 66.9397 69.5881 66.4341 69.804C65.9312 70.017 65.3247 70.1236 64.6145 70.1236C63.9099 70.1236 63.2963 70.0156 62.7736 69.7997C62.2537 69.5838 61.8474 69.2642 61.5548 68.8409C61.265 68.4148 61.113 67.8878 61.0988 67.2599H62.8843C62.9042 67.5526 62.988 67.7969 63.1358 67.9929C63.2863 68.1861 63.4866 68.3324 63.7366 68.4318C63.9895 68.5284 64.275 68.5767 64.5932 68.5767C64.9057 68.5767 65.177 68.5312 65.4071 68.4403C65.64 68.3494 65.8204 68.223 65.9483 68.0611C66.0761 67.8991 66.14 67.7131 66.14 67.5028C66.14 67.3068 66.0818 67.142 65.9653 67.0085C65.8517 66.875 65.6841 66.7614 65.4625 66.6676C65.2437 66.5739 64.9753 66.4886 64.6571 66.4119L63.7068 66.1733C62.971 65.9943 62.39 65.7145 61.9639 65.3338C61.5378 64.9531 61.3261 64.4403 61.3289 63.7955C61.3261 63.267 61.4667 62.8054 61.7508 62.4105C62.0378 62.0156 62.4312 61.7074 62.9312 61.4858C63.4312 61.2642 63.9994 61.1534 64.6358 61.1534C65.2835 61.1534 65.8488 61.2642 66.3318 61.4858C66.8176 61.7074 67.1954 62.0156 67.4653 62.4105C67.7352 62.8054 67.8744 63.2628 67.8829 63.7827H66.1145Z" fill="#FF8D28"/>
<path d="M39.0978 28.4359L31.3929 33.7025L38.4314 30.3234C38.6553 29.6752 38.8785 29.0456 39.0978 28.4359Z" fill="#FF8D28"/>
<path d="M40.7769 23.9411L28.9613 26.9648L40.0424 25.8694C40.3054 25.1696 40.5519 24.5242 40.7769 23.9411Z" fill="#FF8D28"/>
<path d="M41.1718 22.9216C41.2149 22.81 41.2585 22.6978 41.2993 22.5935C41.5192 22.0286 41.7611 21.4064 41.8818 21.0771L28.9811 19.8021L41.1718 22.9216Z" fill="#FF8D28"/>
<path d="M42.7296 18.4937L31.4484 13.0775L42.0637 20.3331C42.1856 19.7914 42.3822 19.1029 42.7296 18.4937Z" fill="#FF8D28"/>
<path d="M43.4079 17.638C43.4572 17.3638 43.5218 17.1337 43.6039 16.9427L43.6039 15.3107L36.0673 7.60237L43.3223 17.7196C43.3512 17.6924 43.3784 17.6641 43.4079 17.638Z" fill="#FF8D28"/>
<path d="M43.8771 7.56553L43.5224 7.56553C43.4278 7.56553 43.3377 7.54739 43.2538 7.51453L44.4999 11.9634C44.8099 11.7237 45.1907 11.5435 45.6298 11.4381L43.8771 7.56553Z" fill="#FF8D28"/>
<path d="M49.8878 10.0339L49.6996 7.56554L48.976 7.56554L48.7879 10.0339L49.2825 10.0339L49.8878 10.0339Z" fill="#FF8D28"/>
<path d="M55.5538 7.05554C55.5317 7.03797 55.5119 7.01814 55.4898 7C55.4615 7.11447 55.4093 7.22327 55.3294 7.31337C55.1968 7.46411 55.0093 7.55137 54.8098 7.561L53.0418 11.467C53.4798 11.5872 53.8567 11.7821 54.1576 12.0388L55.5538 7.05554Z" fill="#FF8D28"/>
<path d="M54.9605 15.4694L54.9605 16.9427C55.0427 17.1343 55.1073 17.3638 55.1566 17.638C55.2144 17.6885 55.2693 17.7417 55.3226 17.7967L62.5822 7.67377L54.9605 15.4694Z" fill="#FF8D28"/>
<path d="M55.8899 18.59C56.2287 19.2202 56.4123 19.9206 56.5268 20.4498L67.1716 13.1733L55.8899 18.59Z" fill="#FF8D28"/>
<path d="M56.7229 21.1842C56.8526 21.5316 57.0691 22.0886 57.268 22.5998C57.3207 22.7346 57.3762 22.878 57.4334 23.0253L69.6038 19.9109L56.7229 21.1842Z" fill="#FF8D28"/>
<path d="M57.8363 24.0674C58.0602 24.6488 58.3056 25.2914 58.5657 25.9845L69.5839 27.0736L57.8363 24.0674Z" fill="#FF8D28"/>
<path d="M59.5307 28.6132C59.7461 29.2145 59.9648 29.8338 60.1835 30.4702L67.1155 33.7982L59.5307 28.6132Z" fill="#FF8D28"/>
<path d="M52.7959 14.3372C52.7222 14.3327 52.6423 14.3281 52.5556 14.3242L52.5556 14.5174L53.621 14.4528C53.621 14.4528 53.5768 14.4335 53.4459 14.4092C53.4022 14.4012 53.349 14.3922 53.2844 14.3837L53.2844 13.4107C53.1943 13.4339 53.0821 13.46 52.9438 13.4883C52.8974 13.4974 52.8486 13.507 52.7959 13.5167L52.7959 14.3372Z" fill="#FF8D28"/>
<path d="M53.2844 16.694L53.2844 15.721C53.2543 15.7289 53.222 15.7369 53.1869 15.7454C53.0815 15.7703 52.9529 15.7981 52.7959 15.827L52.7959 16.6481C52.7222 16.6435 52.6423 16.639 52.5556 16.635L52.5556 16.8283L53.621 16.7637C53.621 16.7637 53.5428 16.7291 53.2844 16.694Z" fill="#FF8D28"/>
<path d="M52.7959 14.6715L52.7959 15.4926C52.7222 15.4881 52.6423 15.4836 52.5556 15.4796L52.5556 15.6728L53.621 15.6082C53.621 15.6082 53.6102 15.6037 53.5824 15.5958C53.5365 15.5827 53.4459 15.5606 53.2844 15.5391L53.2844 14.5661C53.2543 14.5741 53.222 14.582 53.1869 14.5905C53.0815 14.6149 52.9529 14.6421 52.7959 14.6715Z" fill="#FF8D28"/>
<path d="M51.79 13.409L51.79 13.1534C51.6841 13.1534 51.5724 13.154 51.4551 13.1551L51.4551 13.4294L51.79 13.409Z" fill="#FF8D28"/>
<path d="M51.79 14.5639L51.79 14.3083C51.6841 14.3083 51.5724 14.3083 51.4551 14.31L51.4551 14.5843L51.79 14.5639Z" fill="#FF8D28"/>
<path d="M51.79 15.7193L51.79 15.4637C51.6841 15.4637 51.5724 15.4643 51.4551 15.4654L51.4551 15.7397L51.79 15.7193Z" fill="#FF8D28"/>
<path d="M51.79 16.6192C51.6841 16.6192 51.5724 16.6197 51.4551 16.6209L51.4551 16.8951L51.79 16.8747L51.79 16.6192Z" fill="#FF8D28"/>
<path d="M37.3474 53.1952C37.6115 53.4956 37.8994 53.7766 38.211 54.039C38.6785 54.4323 39.1987 54.7825 39.7728 55.0896C40.1371 55.2845 40.5174 55.4579 40.9084 55.6121C41.6904 55.9203 42.5177 56.1521 43.3547 56.3255C43.7734 56.4122 44.1945 56.4847 44.6138 56.5442C46.2911 56.7845 47.9396 56.8293 49.2831 56.8293C50.2907 56.8293 51.4699 56.8038 52.7041 56.6899C53.1155 56.6519 53.5331 56.6043 53.9525 56.5442C54.1621 56.5142 54.3724 56.4813 54.582 56.4451C56.052 56.1901 57.5179 55.7719 58.7929 55.0896C61.8524 53.4531 63.4033 50.5789 63.4033 46.5471C63.4033 39.7403 58.6116 27.4176 56.8079 22.7788C56.4889 21.9583 56.1868 21.1825 56.1358 21.004L56.1205 20.9275C56.0633 20.6397 55.9845 20.2424 55.8576 19.8214C55.8366 19.7511 55.814 19.6803 55.7902 19.6089C55.7182 19.3953 55.6332 19.1794 55.5318 18.9708C55.4978 18.9017 55.4621 18.8331 55.4247 18.7657C55.3119 18.564 55.1816 18.3741 55.0303 18.2064C54.9294 18.0948 54.8195 17.9922 54.6988 17.9032C54.6427 17.5088 54.5611 17.238 54.4664 17.0521L54.4664 13.8028C54.4664 12.5919 53.4668 11.9691 52.4219 11.8484C52.0655 11.331 51.3832 10.5281 50.5808 10.5281L49.2826 10.5281L47.9838 10.5281C47.1814 10.5281 46.4991 11.331 46.1427 11.8484C45.0977 11.9691 44.0981 12.5919 44.0981 13.8028L44.0981 17.0521C44.0029 17.2385 43.9219 17.5088 43.8658 17.9032C42.903 18.6161 42.5965 20.1597 42.4446 20.927L42.4293 21.0035C42.3783 21.182 42.0763 21.9577 41.7572 22.7783C41.2501 24.0833 40.506 25.9958 39.6991 28.2222C39.52 28.7169 39.3376 29.2275 39.154 29.75C38.695 31.0567 38.228 32.4399 37.7832 33.8498C37.0715 36.1057 36.4164 38.429 35.9387 40.6135C35.4616 42.7986 35.1618 44.8448 35.1618 46.5465C35.1618 48.8143 35.6525 50.7161 36.6266 52.2376C36.8431 52.5759 37.0834 52.8949 37.3474 53.1952ZM36.0894 46.3743C36.1013 45.9991 36.1246 45.6251 36.1552 45.2523C36.1705 45.0658 36.1869 44.8794 36.205 44.6935C36.2226 44.5071 36.2419 44.3212 36.2606 44.1354C36.3059 43.7648 36.3558 43.3947 36.4107 43.0253C36.4657 42.6558 36.5252 42.288 36.5881 41.9203C36.8346 40.4492 37.1684 38.9974 37.522 37.553C37.8773 36.1085 38.2926 34.6817 38.7154 33.2588C39.1545 31.8404 39.6107 30.4283 40.1031 29.0297L40.8557 26.9365L41.6496 24.8591C41.9227 24.17 42.1981 23.4821 42.4803 22.797L42.907 21.7707C43.0492 21.4285 43.2028 21.0913 43.3252 20.7417C43.1609 21.4664 42.9359 22.1742 42.7296 22.8848L42.0893 25.0115L40.8024 29.2558C40.3814 30.6719 39.9569 32.0858 39.5603 33.507C39.1477 34.9231 38.7726 36.3494 38.4037 37.7745C38.2246 38.488 38.049 39.2025 37.8812 39.9194C37.7135 40.6356 37.5543 41.3536 37.4086 42.0738C37.1174 43.5137 36.8799 44.9599 36.7388 46.4151C36.6663 47.1381 36.6391 47.868 36.6878 48.5871C36.7247 49.1266 36.804 49.6609 36.9394 50.1823C36.9848 50.3562 37.0363 50.5285 37.0941 50.6991C37.2114 51.0391 37.3588 51.3683 37.535 51.6828C37.7112 51.9979 37.9158 52.2976 38.1476 52.5787C38.6105 53.1408 39.1755 53.6242 39.7864 54.0424C39.1364 53.6905 38.5114 53.2661 37.9866 52.7232C37.5877 52.322 37.25 51.8573 36.9797 51.3541C36.8896 51.1864 36.8074 51.0147 36.7326 50.839C36.4294 50.1386 36.2538 49.3884 36.1625 48.6358C36.1166 48.2596 36.0894 47.881 36.0781 47.5025C36.0662 47.1257 36.0707 46.7477 36.0894 46.3743ZM51.1344 13.4487L51.1344 13.1602C50.8641 13.1659 50.5666 13.1755 50.2368 13.1897L50.2368 12.5137L52.0456 12.5137C52.0706 12.5137 52.1323 12.5148 52.2185 12.5216C52.2757 12.5261 52.3443 12.5335 52.4196 12.5448C52.533 12.5618 52.6622 12.5879 52.7953 12.6281L52.7953 13.1818C52.7217 13.1772 52.6418 13.1727 52.5551 13.1687L52.5551 13.362L53.6204 13.2974C53.6204 13.2974 53.5762 13.2781 53.4453 13.2537C53.4017 13.2458 53.3484 13.2367 53.2838 13.2282L53.2838 12.8554C53.3184 12.8792 53.3524 12.9047 53.3852 12.9319C53.4833 13.0135 53.5694 13.1109 53.6357 13.2271C53.6799 13.3047 53.7156 13.3909 53.7405 13.4866C53.7649 13.5824 53.7785 13.6872 53.7785 13.8028C53.7785 15.1203 53.7785 17.2686 53.7785 17.2686L53.2838 17.2686L53.2838 16.8759C53.2538 16.8838 53.2215 16.8917 53.1863 16.9002C53.0809 16.9252 52.9523 16.9529 52.7953 16.9818L52.7953 17.2686L50.4267 17.2686C50.1722 17.2895 49.8985 17.3099 49.6039 17.3292C49.5053 17.3354 49.405 17.3422 49.3013 17.3485C45.5839 17.5746 44.943 17.2918 44.943 17.2918L51.1339 16.915L51.1339 16.6265C50.8636 16.6322 50.5661 16.6418 50.2363 16.656L50.2363 16.129C49.9484 16.1517 49.6379 16.1732 49.3013 16.1936C48.4581 16.2446 47.7747 16.2695 47.2193 16.278L47.2193 16.8725C46.9677 16.8991 46.7428 16.9263 46.5416 16.9529C46.2067 16.9971 45.9392 17.0413 45.7262 17.0816L45.7262 16.2503C45.1028 16.2078 44.943 16.1369 44.943 16.1369L51.1339 15.7601L51.1339 15.4717C50.8636 15.4773 50.5661 15.487 50.2363 15.5011L50.2363 14.9741C49.9484 14.9962 49.6379 15.0178 49.3013 15.0387C48.8797 15.0642 48.4977 15.0835 48.1521 15.0971C47.8064 15.1107 47.497 15.1192 47.2193 15.1232L47.2193 15.7176C46.9677 15.7442 46.7428 15.7714 46.5416 15.7981C46.2067 15.8428 45.9392 15.8865 45.7262 15.9267L45.7262 15.0954C45.1028 15.0529 44.943 14.9821 44.943 14.9821L51.1339 14.6052L51.1339 14.3168C50.8636 14.3225 50.5661 14.3321 50.2363 14.3463L50.2363 13.8193C49.9484 13.8414 49.6379 13.8635 49.3013 13.8839C48.4581 13.9349 47.7747 13.9604 47.2193 13.9683L47.2193 14.5627C46.9677 14.5894 46.7428 14.6166 46.5416 14.6432C46.341 14.6698 46.1642 14.6965 46.0089 14.722C45.9052 14.739 45.8117 14.756 45.7262 14.7718L45.7262 13.9405C45.1028 13.898 44.943 13.8272 44.943 13.8272L51.1344 13.4487ZM51.7442 12.0552C51.6722 11.9634 51.5963 11.875 51.5158 11.7923C51.4353 11.7101 51.3498 11.6342 51.2591 11.5668C51.1248 11.4659 50.9763 11.3832 50.8233 11.3424C50.7723 11.3288 50.7208 11.3197 50.6686 11.3163L49.2831 11.3288L47.8976 11.3163C47.7939 11.3231 47.6908 11.352 47.5916 11.3956C47.4925 11.4393 47.3967 11.4988 47.3072 11.5662C47.1253 11.7005 46.9655 11.8699 46.8215 12.0541C46.9184 11.8405 47.0578 11.645 47.2267 11.4733C47.3978 11.3055 47.6171 11.1644 47.8755 11.1242C48.3629 11.0976 48.8128 11.1044 49.2837 11.0993C49.754 11.1044 50.2045 11.0976 50.6919 11.1242C50.9503 11.1644 51.1696 11.305 51.3401 11.4727C51.5079 11.6461 51.6473 11.8416 51.7442 12.0552ZM46.5189 12.5137L47.2199 12.5137L47.2199 13.4056C46.9683 13.4322 46.7433 13.4594 46.5422 13.4861C46.3416 13.5127 46.1648 13.5393 46.0095 13.5648C45.9058 13.5818 45.8123 13.5988 45.7267 13.6147L45.7267 12.6417C46.0979 12.5222 46.4504 12.5142 46.5189 12.5137ZM56.0843 23.8255C56.2577 24.2652 56.4333 24.7044 56.6067 25.1447C56.7801 25.585 56.9507 26.0258 57.1145 26.4695C57.4494 27.3547 57.7718 28.2443 58.084 29.138C58.3963 30.0316 58.6977 30.9292 58.9901 31.8302C59.5608 33.6367 60.1093 35.4523 60.5683 37.2963C60.8029 38.2165 61.0284 39.1402 61.2205 40.0729C61.4098 41.0062 61.586 41.9429 61.7317 42.8881C61.7685 43.1244 61.8019 43.3613 61.8331 43.5987C61.8949 44.0736 61.9453 44.5507 61.985 45.0296C62.0048 45.2693 62.0218 45.509 62.0365 45.7498C62.0887 46.7069 62.0966 47.7048 61.9379 48.6812C61.7827 49.6581 61.475 50.6243 60.9899 51.5003C60.808 51.8284 60.6017 52.1429 60.3734 52.4399C60.2215 52.6382 60.0594 52.828 59.8889 53.0099C59.8039 53.1006 59.716 53.189 59.6265 53.2751C59.4474 53.4474 59.2599 53.61 59.0644 53.7619C58.288 54.3767 57.4142 54.838 56.5127 55.1899C55.6094 55.5418 54.6721 55.7719 53.7315 55.9379C51.8473 56.2671 49.9399 56.3062 48.0535 56.2207C49.9405 56.1294 51.8235 55.9356 53.6419 55.5055C54.5503 55.2902 55.436 54.9989 56.2786 54.6283C57.1179 54.2532 57.9095 53.7806 58.5872 53.1873C58.9261 52.8915 59.2372 52.5674 59.5137 52.2183C59.7903 51.8692 60.0322 51.4947 60.2328 51.098C60.5349 50.5036 60.7479 49.8661 60.8822 49.2087C60.927 48.9894 60.9627 48.7679 60.9905 48.5452C61.0199 48.3225 61.0415 48.0986 61.0551 47.8737C61.0828 47.4237 61.0806 46.9693 61.0579 46.512C61.0466 46.2836 61.0301 46.0541 61.0092 45.8246C60.927 44.906 60.7797 43.9807 60.6397 43.0632C60.4028 41.6834 60.1189 40.3092 59.8044 38.9385C59.3845 37.1115 58.9102 35.2908 58.4201 33.4747C58.2977 33.0208 58.1741 32.5669 58.05 32.113C57.5536 30.2968 57.0306 28.4857 56.5144 26.6701L55.7358 23.9462C55.6117 23.49 55.4808 23.0355 55.3561 22.5794C55.2314 22.1232 55.1119 21.6648 55.011 21.2012C55.0898 21.4239 55.1793 21.6427 55.2711 21.8603C55.3629 22.0784 55.457 22.2955 55.5459 22.5142L56.0843 23.8255ZM38.8281 46.5471C38.8281 45.9068 38.8803 45.2024 38.9732 44.4504C39.0044 44.2 39.0401 43.9444 39.0797 43.6837C39.0763 43.8617 39.0707 44.039 39.0707 44.2175C39.0712 44.37 39.0729 44.5224 39.0763 44.6748C39.0899 45.2851 39.1285 45.8983 39.2021 46.5086C39.2577 46.9664 39.3325 47.4237 39.4316 47.8776C39.5739 48.4806 39.7569 49.0829 40.047 49.6428C40.1893 49.9227 40.3666 50.1885 40.5689 50.4276C40.7327 50.5993 40.914 50.7546 41.1141 50.8674C41.1809 50.9048 41.2495 50.9376 41.3203 50.9648C41.2064 50.864 41.1084 50.754 41.0228 50.6373C40.7661 50.2871 40.625 49.8768 40.531 49.4615C40.4091 48.905 40.3564 48.3338 40.34 47.7598C40.3185 46.6083 40.3989 45.4517 40.5349 44.2963C40.6358 43.4299 40.7588 42.564 40.897 41.6993C40.9894 41.123 41.0886 40.5467 41.1934 39.9709C41.3504 39.1073 41.5192 38.2437 41.6943 37.3813C42.1613 35.08 42.6741 32.7794 43.1886 30.4691C43.3887 29.5601 43.5893 28.6495 43.7853 27.7355C43.9208 27.3734 44.0528 27.0232 44.1803 26.6877C44.2443 26.52 44.3067 26.3556 44.3679 26.1953C44.6744 25.3934 44.9487 24.6874 45.1742 24.1071C45.3811 23.5756 45.5335 23.1817 45.6491 22.878L45.1935 25.4569L46.2469 22.7715L46.7722 21.4279L46.804 21.3463C46.8125 21.3888 46.821 21.4313 46.8289 21.4727C46.8782 21.7186 46.9258 21.9577 46.9609 22.1997C46.9966 22.4417 47.0199 22.687 47.0199 22.9443C47.0199 23.1092 46.991 23.3053 46.9541 23.5161C46.9417 23.5863 46.9286 23.6583 46.915 23.7308C46.8992 23.8164 46.8827 23.9037 46.8674 23.9921C46.8062 24.344 46.7586 24.7089 46.7943 25.0506C46.821 25.3067 46.8946 25.5504 47.0448 25.7663C47.0352 26.0984 46.9995 26.3851 46.9394 26.6237C46.8992 26.7829 46.8487 26.9206 46.787 27.0356C46.7564 27.0934 46.7229 27.1456 46.6867 27.1915C46.6147 27.2838 46.532 27.3535 46.439 27.3989C46.345 27.4448 46.2418 27.4663 46.1342 27.4697C46.1342 27.4368 46.1347 27.404 46.1347 27.3711C46.1364 27.1161 45.9834 26.8962 45.763 26.801C45.6899 26.7693 45.6089 26.7517 45.5239 26.7506C45.5222 26.7506 45.5205 26.7506 45.5188 26.7506C45.3499 26.7506 45.198 26.8192 45.0875 26.9297C45.0507 26.9665 45.0184 27.0079 44.9912 27.0532C44.9787 27.0441 44.9657 27.0356 44.9549 27.0271C44.8535 26.9518 44.7101 26.9722 44.6342 27.073C44.5583 27.1745 44.5787 27.3178 44.6801 27.3938C44.6829 27.396 44.6903 27.4011 44.7016 27.4096C44.7356 27.434 44.8059 27.4822 44.9017 27.54C44.9 27.8556 44.896 28.5758 44.8943 29.5766C44.8903 31.7781 44.896 35.3362 44.9532 38.9186C44.9651 39.6644 44.9787 40.3653 44.9935 41.0249C45.0008 41.3547 45.0082 41.6743 45.0167 41.9832C45.0207 42.1379 45.0246 42.2897 45.0292 42.4393C45.0377 42.7385 45.0462 43.0281 45.0547 43.3075C45.0592 43.4474 45.0637 43.5846 45.0683 43.72C45.0773 43.9903 45.087 44.251 45.096 44.5031C45.1249 45.2585 45.1561 45.9323 45.189 46.5335C45.1997 46.7341 45.2111 46.9262 45.2224 47.1109C45.2621 47.7575 45.3034 48.3094 45.3459 48.7815C45.3947 49.3209 45.4451 49.7561 45.4961 50.1086C45.5023 50.1528 45.5086 50.1953 45.5154 50.2372C45.5409 50.4033 45.5663 50.5495 45.5919 50.6781C45.6111 50.775 45.6298 50.8617 45.6491 50.9399C45.6678 51.0181 45.6871 51.0878 45.7052 51.1501C45.7239 51.2125 45.742 51.2674 45.7607 51.3156C45.7726 51.3479 45.7851 51.3774 45.797 51.4046C45.8741 51.5808 45.946 51.6533 46.0072 51.7151C46.0429 51.7514 46.0815 51.7831 46.1217 51.8109C46.2027 51.8664 46.2923 51.9044 46.3858 51.9242C46.4322 51.9338 46.4804 51.9389 46.5286 51.9389C47.2244 51.9389 47.4755 51.3434 47.6092 48.9401L48.2031 48.9401C48.241 49.4014 48.2841 49.7952 48.334 50.1307C48.3674 50.3545 48.4031 50.5517 48.4422 50.7263C48.462 50.8135 48.4819 50.8946 48.5034 50.9705C48.5669 51.1983 48.6377 51.3762 48.717 51.5139C48.7697 51.6057 48.8264 51.68 48.887 51.7389C49.0083 51.8568 49.146 51.914 49.3024 51.9321C49.3415 51.9367 49.3817 51.9389 49.4231 51.9389C49.6282 51.9389 49.8249 51.8545 49.9767 51.7009C50.2935 51.3802 50.4782 50.5891 50.574 48.9407L51.0817 48.9407C51.1673 51.523 51.3441 51.7395 51.7504 51.8959C52.0065 51.9945 52.2961 51.9225 52.4882 51.7123C52.559 51.6346 52.6797 51.5026 52.818 51.0589C52.856 50.9382 52.8951 50.7937 52.9347 50.6214C52.9478 50.5642 52.9614 50.5036 52.9744 50.4395C53.0277 50.1834 53.0821 49.874 53.1359 49.4989C53.1625 49.3113 53.1892 49.1073 53.2158 48.8852C53.2685 48.4409 53.3195 47.9252 53.3671 47.3246C53.379 47.1744 53.3909 47.0191 53.4028 46.8582C53.426 46.5363 53.4481 46.1929 53.4697 45.8257C53.5122 45.0919 53.5507 44.2646 53.5836 43.3307C53.7519 38.5339 53.6799 32.7391 53.3869 27.417C53.4034 27.4057 53.4158 27.396 53.4198 27.3938C53.4957 27.3365 53.5263 27.2413 53.5048 27.1552C53.4974 27.1263 53.485 27.0985 53.4657 27.073C53.4141 27.0045 53.3314 26.9761 53.2515 26.9875C53.2232 26.9512 53.1909 26.9183 53.1557 26.8894C53.0498 26.8027 52.9149 26.7506 52.7687 26.7506C52.7574 26.7506 52.7455 26.7506 52.7341 26.7517C52.3947 26.7704 52.1346 27.0611 52.1533 27.4006C52.1544 27.4198 52.155 27.4391 52.1561 27.4584C51.9822 27.4827 51.8105 27.472 51.662 27.3994C51.5691 27.3541 51.4869 27.285 51.4149 27.1932C51.3787 27.1473 51.3458 27.0957 51.3146 27.0385C51.2529 26.924 51.2024 26.7869 51.1622 26.6288C51.1424 26.5494 51.1248 26.465 51.1101 26.3755C51.0812 26.1964 51.0625 25.9958 51.0557 25.7759C51.2602 25.4875 51.3265 25.1492 51.3254 24.7962C51.3248 24.6194 51.3078 24.4397 51.2829 24.2601C51.258 24.081 51.2251 23.9025 51.1928 23.7303C51.139 23.4384 51.0874 23.163 51.0874 22.9437C51.0874 22.6859 51.1106 22.4411 51.1458 22.1991C51.1815 21.9572 51.2291 21.718 51.2778 21.4721C51.2959 21.3814 51.3146 21.2874 51.3328 21.1922L51.475 21.1922C51.9895 22.2807 52.5018 23.3517 53.0067 24.3961L52.5811 21.9028C52.6667 22.2399 52.8367 22.6819 53.3903 24.1071C53.6074 24.6653 53.8692 25.3385 54.1616 26.1018C54.3078 26.4837 54.4613 26.8877 54.6206 27.311C55.0189 28.3696 55.4536 29.5488 55.8956 30.7977C56.6022 32.7964 57.3281 34.9752 57.956 37.1285C58.976 40.6283 59.737 44.0606 59.737 46.5465C59.737 49.9851 58.3084 51.1904 57.0635 51.8562C56.1058 52.3685 54.9356 52.6824 53.7298 52.8739C53.3852 52.9289 53.0379 52.9731 52.6922 53.0094C52.1731 53.0638 51.6569 53.1 51.1577 53.1233C50.4918 53.1544 49.856 53.1629 49.2831 53.1629C46.9915 53.1629 43.6913 53.0275 41.5022 51.8568C40.2567 51.1909 38.8281 49.9862 38.8281 46.5471ZM53.7082 18.3356C53.7082 18.3356 53.0741 18.6473 49.2826 18.6473C45.4904 18.6473 44.8569 18.3356 44.8569 18.3356L53.7082 18.3356ZM49.2735 25.4303C49.2015 25.4376 49.1279 25.4416 49.0531 25.4439C48.8292 25.4376 48.6116 25.4127 48.4377 25.3458C48.3799 25.3237 48.3266 25.2971 48.2796 25.2648C48.0897 25.1441 47.9736 24.9112 47.9175 24.6086C47.9044 24.5355 47.8954 24.4613 47.888 24.3848C47.9163 24.4907 47.9577 24.5888 48.0149 24.6772C48.1288 24.8534 48.3068 24.9877 48.5765 25.058C48.7114 25.0931 48.8695 25.1118 49.0536 25.1118C49.1449 25.1118 49.2299 25.1073 49.3092 25.0982C49.388 25.0891 49.4611 25.0761 49.5279 25.0585C49.6622 25.024 49.7739 24.9735 49.8662 24.9101C50.051 24.7831 50.1586 24.6041 50.217 24.395C50.2096 24.4675 50.2011 24.5389 50.1887 24.6086C50.1603 24.7599 50.1173 24.8936 50.0578 25.0047C49.9983 25.1158 49.9218 25.2042 49.8271 25.2642C49.6855 25.3611 49.4888 25.4087 49.2735 25.4303ZM52.1782 27.9174C52.2009 28.352 52.2224 28.7838 52.2423 29.2128C52.4389 33.5036 52.474 37.5031 52.4111 40.8725C52.4049 41.2097 52.3975 41.54 52.3896 41.8642C52.3732 42.5124 52.3528 43.1335 52.3295 43.7257C52.3063 44.3178 52.2797 44.8805 52.2502 45.4115C52.2417 44.3881 52.2366 43.3177 52.2321 42.2846C52.1913 33.3647 52.0502 29.5069 51.6427 27.8811C51.819 27.9315 52.0009 27.9378 52.1782 27.9174ZM47.3287 26.9155C47.4001 26.6985 47.4505 26.4491 47.4789 26.1641C47.7616 26.333 48.1322 26.4361 48.5952 26.4752L48.5952 27.3909C48.5516 27.2719 48.5028 27.1722 48.4496 27.09C48.3963 27.0079 48.3379 26.9427 48.2733 26.8928C48.2093 26.8424 48.139 26.8073 48.0625 26.7846C47.986 26.7619 47.9027 26.7517 47.8126 26.7517C47.6211 26.7517 47.4624 26.7993 47.3287 26.9155ZM49.0043 30.8601C48.9987 30.7354 48.9924 30.6153 48.9868 30.4974C49.0026 29.257 49.0213 28.0171 49.0536 26.7772C49.1007 28.5957 49.1228 30.4141 49.1415 32.2325L49.1681 37.6878L49.1613 39.0535C49.1602 38.9492 49.159 38.8438 49.1585 38.7413C49.1568 38.5565 49.1551 38.3724 49.1534 38.1888C49.1477 37.6391 49.1426 37.0957 49.1364 36.5624C49.1262 35.6739 49.1148 34.8137 49.099 33.9966C49.0769 32.853 49.0474 31.7934 49.0043 30.8601ZM50.6205 26.1681C50.6414 26.3823 50.6743 26.5778 50.7202 26.7534C50.6992 26.7523 50.6783 26.7517 50.6567 26.7517C50.4992 26.7517 50.3462 26.8005 50.2136 26.8917C50.1694 26.9223 50.1275 26.9569 50.0884 26.9965C49.8084 27.2799 49.6254 27.8987 49.5121 29.0768L49.5121 26.4752C49.9705 26.4361 50.3388 26.3347 50.6205 26.1681ZM46.9791 27.5524C46.7841 28.2081 46.6867 29.3408 46.617 31.2137C46.5847 32.0863 46.5631 33.0701 46.5495 34.1184C46.5263 35.866 46.5223 37.7921 46.5189 39.678C46.5144 42.1424 46.5093 44.9247 46.4492 47.1138C46.4164 46.5579 46.3858 45.9527 46.358 45.305C46.3438 44.9808 46.3308 44.6471 46.3178 44.3025C46.3115 44.1303 46.3053 43.9563 46.2991 43.7795C46.2872 43.4259 46.2753 43.0632 46.2645 42.6921C46.2588 42.5068 46.2537 42.3186 46.2486 42.1294C46.2282 41.3712 46.2101 40.5812 46.1948 39.7664C46.1908 39.5629 46.1869 39.3578 46.1835 39.151C46.1761 38.7379 46.1699 38.3191 46.1636 37.8952C46.1455 36.6242 46.133 35.3101 46.1262 33.9767C46.1228 33.3103 46.1206 32.6388 46.1194 31.9651C46.1194 31.7407 46.1189 31.5163 46.1189 31.2913C46.1189 30.8419 46.1194 30.392 46.1206 29.9426C46.1223 29.2689 46.1257 28.5957 46.1296 27.927C46.3019 27.9236 46.4742 27.8907 46.6385 27.8103C46.7671 27.7496 46.8793 27.6612 46.9791 27.5524ZM47.6619 47.728C47.7055 46.4978 47.7265 45.0165 47.7373 43.4435C47.7458 42.22 47.748 40.9405 47.7509 39.6802C47.752 39.0847 47.7531 38.4608 47.7554 37.8244C47.7594 36.5517 47.7673 35.2268 47.7854 33.9716C47.7945 33.3443 47.8064 32.734 47.8211 32.1566C47.8364 32.6609 47.8495 33.1902 47.8608 33.7342C47.8721 34.2782 47.8812 34.8369 47.8897 35.3996C47.9056 36.5256 47.9169 37.6703 47.9271 38.752C47.9379 39.8808 47.9498 40.915 47.9628 41.863C47.9662 42.0999 47.9696 42.3317 47.973 42.5578C47.9804 43.01 47.9877 43.4412 47.9962 43.852C48.0127 44.6737 48.0314 45.4143 48.0535 46.0813C48.0807 46.9154 48.1135 47.6345 48.1526 48.2545L47.6415 48.2545C47.6483 48.0862 47.6551 47.9116 47.6619 47.728ZM50.6057 48.255C50.6193 47.906 50.6301 47.5252 50.6386 47.1109C50.6465 46.6967 50.6528 46.2485 50.6556 45.764C50.6579 45.441 50.659 45.1015 50.6596 44.7457C50.6601 44.0334 50.6567 43.2536 50.6505 42.3997C50.6443 41.5463 50.6346 40.6186 50.6233 39.6122C50.6114 38.5866 50.5984 37.477 50.591 36.363C50.5865 35.6943 50.5836 35.0234 50.5848 34.3683C50.5853 33.7127 50.5893 33.0723 50.5984 32.4643C50.6131 31.4505 50.6403 30.5263 50.6873 29.7698C50.8726 31.837 50.9435 35.1854 50.9746 38.31C50.9888 39.7301 50.995 41.1043 51.0007 42.2909C51.0075 43.7988 51.0154 45.063 51.0273 46.1249C51.0302 46.3607 51.0324 46.5868 51.0358 46.8032C51.0387 47.0197 51.0421 47.2265 51.0455 47.4243C51.0472 47.5235 51.0489 47.6198 51.0506 47.7144C51.054 47.9037 51.0579 48.0833 51.0619 48.255L50.6057 48.255ZM53.1308 32.1906C53.1812 33.6832 53.2135 35.1769 53.2288 36.6707C53.2566 39.6581 53.2243 42.6467 53.0668 45.6342C53.0226 46.3811 52.9772 47.1274 52.9121 47.8742C52.8463 48.6205 52.7608 49.3668 52.6367 50.1131C52.5653 50.4883 52.5035 50.8566 52.3414 51.2442C52.3188 51.2935 52.3035 51.34 52.2627 51.3955L52.2077 51.4743C52.1975 51.4862 52.1981 51.4907 52.185 51.5043C52.1805 51.5088 52.1748 51.5145 52.1669 51.5219C52.1476 51.5411 52.1097 51.5706 52.0479 51.5882C51.9856 51.6057 51.8977 51.5899 51.8558 51.5598C51.8422 51.5513 51.8314 51.544 51.8229 51.5372C51.7963 51.5162 51.7861 51.4992 51.768 51.4788C51.7379 51.4357 51.7232 51.4017 51.7096 51.37C51.6869 51.3105 51.6722 51.2572 51.6609 51.2062C51.6155 51.0039 51.5951 50.8158 51.5753 50.6254C51.5045 49.8695 51.4824 49.1232 51.4597 48.3746C51.3872 45.3849 51.3957 42.4008 51.3634 39.4173C51.3441 37.927 51.3322 36.4344 51.2976 34.9446C51.2801 34.1994 51.2568 33.4554 51.224 32.7125C51.1911 31.9696 51.148 31.2278 51.0919 30.4878C51.0256 29.7545 50.9599 29.0025 50.7774 28.3231C50.7531 28.2409 50.7264 28.1605 50.6953 28.0902C50.6839 28.063 50.6703 28.0381 50.6573 28.016C50.6397 28.0477 50.621 28.0879 50.6063 28.1299C50.5791 28.2069 50.5553 28.2874 50.5343 28.3713C50.4714 28.6223 50.434 28.9 50.4006 29.1691C50.3615 29.5346 50.3309 29.9018 50.3071 30.2707C50.2601 31.0085 50.2391 31.7526 50.2272 32.4972C50.221 32.8695 50.217 33.2418 50.213 33.6135C50.1943 36.593 50.2555 39.5771 50.281 42.5634C50.2935 44.0566 50.3009 45.5503 50.2742 47.0469C50.2595 47.7955 50.2374 48.544 50.1864 49.2954C50.1598 49.6717 50.1275 50.048 50.0714 50.4282C50.0419 50.6186 50.0096 50.809 49.9552 51.0062C49.941 51.0555 49.9263 51.1054 49.9087 51.1558C49.8912 51.2068 49.8702 51.2584 49.8436 51.3128C49.8186 51.3655 49.7824 51.4244 49.7308 51.485C49.7178 51.4998 49.7019 51.5156 49.6832 51.5315C49.6271 51.5791 49.5461 51.6256 49.4429 51.6312C49.3052 51.6397 49.1925 51.5666 49.1364 51.5094C49.1052 51.4794 49.0808 51.4499 49.061 51.421C49.0406 51.3927 49.0247 51.3649 49.01 51.3383C48.9522 51.2312 48.9171 51.132 48.8859 51.034C48.8253 50.8385 48.7867 50.6486 48.7522 50.4594C48.6847 50.0808 48.6422 49.7051 48.6054 49.33C48.5697 48.9549 48.5414 48.5803 48.5176 48.2063C48.4938 47.8317 48.4745 47.4583 48.4575 47.0843C48.4246 46.3369 48.4008 45.5894 48.3821 44.842C48.3634 44.0951 48.3504 43.3483 48.3391 42.6014C48.2937 39.6151 48.2886 36.6304 48.2235 33.6503C48.1844 32.1628 48.1492 30.668 47.9991 29.202C47.9577 28.8399 47.9101 28.4682 47.8166 28.1463C47.816 28.1446 47.8155 28.1435 47.8149 28.1418C47.7945 28.2075 47.7752 28.2761 47.7599 28.3486C47.6897 28.6971 47.6438 29.0592 47.6092 29.4258C47.5752 29.793 47.5525 30.1648 47.5299 30.5331C47.3808 33.5007 47.4029 36.4888 47.3848 39.4717C47.3672 42.4563 47.3814 45.4415 47.2528 48.4341C47.2131 49.1838 47.1751 49.9301 47.055 50.69C47.021 50.8815 46.9881 51.0697 46.9071 51.2793C46.8856 51.332 46.8595 51.3881 46.8159 51.451C46.7904 51.4839 46.7609 51.519 46.711 51.5542C46.6844 51.5717 46.6504 51.5882 46.6164 51.5989C46.5773 51.608 46.5359 51.6154 46.4968 51.6086C46.4549 51.6018 46.4198 51.5904 46.3897 51.5768C46.3008 51.536 46.2605 51.4731 46.2288 51.434C46.1857 51.3734 46.1636 51.3218 46.1398 51.2697C46.0633 51.0691 46.0135 50.877 45.9755 50.6883C45.9375 50.4996 45.9109 50.3132 45.8814 50.1245C45.682 48.6262 45.6134 47.1342 45.542 45.6404C45.4156 42.6535 45.3703 39.6678 45.3431 36.682L45.325 32.2036C45.3272 31.6438 45.3227 31.0839 45.3284 30.524C45.338 29.5913 45.3754 28.658 45.5199 27.7258C45.6253 28.4727 45.6667 29.2184 45.6831 29.9647C45.6995 30.7105 45.691 31.4562 45.6967 32.2025L45.7324 36.678C45.7715 39.661 45.8282 42.6445 45.9659 45.6212C46.0038 46.3641 46.0418 47.1092 46.0956 47.851C46.1495 48.5928 46.2186 49.3311 46.3189 50.0616C46.3314 50.1432 46.3444 50.2259 46.358 50.3081C46.3722 50.3908 46.3869 50.473 46.4033 50.5534C46.4362 50.7155 46.4747 50.8713 46.5235 51.013C46.5416 50.9524 46.5575 50.8872 46.5716 50.8203C46.5858 50.7535 46.5983 50.6843 46.6096 50.6158C46.7207 49.9006 46.7575 49.1532 46.7932 48.4131C46.9094 45.441 46.8833 42.4541 46.8895 39.4706C46.8878 37.978 46.8941 36.4854 46.9099 34.9916C46.9281 33.4979 46.9513 32.0036 47.0329 30.5053C47.0805 29.7545 47.1207 29.0099 47.2743 28.2421C47.2953 28.1452 47.3202 28.0477 47.3536 27.9463C47.3939 27.8426 47.4165 27.7434 47.5344 27.6074C47.5486 27.5915 47.5667 27.574 47.5911 27.5558C47.612 27.5388 47.6381 27.5224 47.6732 27.5077C47.735 27.4782 47.8245 27.4697 47.8988 27.4884C48.0546 27.5337 48.1067 27.6216 48.1487 27.6777C48.2297 27.8006 48.2575 27.8992 48.2915 28.0007C48.3481 28.1984 48.3872 28.3905 48.4178 28.5809C48.4484 28.7708 48.47 28.9589 48.4926 29.1476C48.5691 29.8996 48.6162 30.6487 48.6485 31.3973C48.6808 32.1453 48.6989 32.8921 48.7182 33.6396C48.7833 36.6276 48.7867 39.6122 48.8315 42.5946C48.8542 44.0855 48.8831 45.5764 48.9482 47.0628C48.9817 47.8057 49.0236 48.548 49.0939 49.2835C49.1296 49.6507 49.1721 50.0174 49.235 50.3738C49.2667 50.5512 49.3041 50.7274 49.354 50.8889C49.3738 50.9518 49.397 51.0107 49.4208 51.0623C49.4446 51.0079 49.4667 50.9444 49.4854 50.877C49.5308 50.7144 49.5619 50.5359 49.5891 50.3579C49.6424 49.9998 49.6741 49.632 49.7002 49.2637C49.7506 48.5265 49.7727 47.783 49.788 47.0395C49.8152 45.552 49.8084 44.0606 49.7965 42.5697C49.7722 39.5867 49.7121 36.6021 49.7314 33.6124C49.7404 32.8644 49.7478 32.1169 49.7733 31.3678C49.7926 30.8062 49.8215 30.2435 49.8696 29.6791C49.8855 29.491 49.9036 29.3029 49.924 29.1142C49.9365 29.0195 49.9484 28.9249 49.9614 28.8303C49.9881 28.641 50.0198 28.4512 50.0685 28.2574C50.0929 28.1605 50.1218 28.0624 50.1564 27.9627C50.196 27.8624 50.2368 27.7581 50.3354 27.6414C50.387 27.5853 50.4658 27.5156 50.5876 27.4924C50.7066 27.4669 50.8398 27.5156 50.9083 27.5734C50.9423 27.6023 50.9707 27.6306 50.995 27.6584C51.0676 27.7423 51.1021 27.8216 51.1378 27.8964C51.1599 27.9468 51.1786 27.9961 51.1956 28.0449C51.2126 28.0936 51.2274 28.1423 51.2421 28.1905C51.2931 28.3815 51.3345 28.5719 51.3696 28.7606C51.4399 29.1385 51.4835 29.5131 51.5203 29.8877C51.539 30.0747 51.5555 30.2622 51.5725 30.4498C51.6626 31.5729 51.7119 32.6944 51.7464 33.8147C51.7578 34.1881 51.768 34.5621 51.777 34.9355C51.8122 36.4298 51.8292 37.923 51.8365 39.4162C51.8558 42.4014 51.8348 45.3877 51.8949 48.3661C51.9142 49.109 51.9334 49.8559 51.9992 50.5863C52.0088 50.6832 52.0196 50.7807 52.0332 50.8759C52.0757 50.7461 52.1119 50.6084 52.1437 50.4679C52.1754 50.3273 52.2032 50.1834 52.2298 50.0423C52.3539 49.3164 52.4417 48.5803 52.5097 47.8402C52.5777 47.1002 52.6265 46.3561 52.6735 45.6144C52.8429 42.6405 52.8883 39.6576 52.873 36.6763C52.8639 35.1854 52.8378 33.6945 52.7942 32.2042C52.7891 32.0178 52.7829 31.8313 52.7766 31.6455C52.7517 30.9003 52.7228 30.1557 52.7194 29.4094C52.7171 28.8495 52.729 28.2891 52.7687 27.7264C53.0384 29.2031 53.0792 30.698 53.1308 32.1906ZM47.1037 20.3478C47.1666 20.562 47.2329 20.7728 47.3015 20.9808C47.34 21.0998 47.3797 21.2177 47.4188 21.3355C47.5372 21.688 47.6517 22.0382 47.7157 22.4054C47.7667 22.0337 47.7633 21.6534 47.7577 21.2783C47.756 21.1531 47.7537 21.029 47.7531 20.9054C47.7509 20.702 47.7514 20.5003 47.7554 20.3002C47.7826 20.5853 47.82 20.8448 47.8557 21.0953C47.9158 21.5135 47.9724 21.9079 47.9724 22.3544C47.9724 22.6428 47.9061 23.0106 47.8642 23.3823C47.8614 23.1211 47.8489 22.8565 47.8024 22.5952C47.7735 22.7193 47.7407 22.8417 47.7067 22.9636C47.6047 23.3296 47.4896 23.6923 47.4284 24.0816C47.4239 24.1201 47.4182 24.1581 47.4143 24.1966C47.4058 24.2663 47.3984 24.3372 47.3922 24.4074C47.3865 24.4896 47.3831 24.5723 47.3842 24.6579C47.3899 24.8007 47.4029 24.9497 47.4437 25.0999C47.4573 25.1498 47.4738 25.1996 47.4942 25.2501C47.5214 25.3152 47.5491 25.3804 47.5848 25.4427C47.6472 25.5221 47.722 25.5906 47.807 25.6479C47.8914 25.7045 47.986 25.7499 48.0869 25.7827C48.3855 25.8949 48.7233 25.904 49.0519 25.9165C49.2984 25.9074 49.55 25.9 49.7863 25.8496C49.8651 25.8326 49.9422 25.8111 50.017 25.7827C50.2221 25.717 50.4 25.598 50.5241 25.4359C50.5581 25.3764 50.5842 25.3141 50.6103 25.2518C50.6919 25.0517 50.714 24.8506 50.7208 24.6596C50.7213 24.5803 50.7179 24.5038 50.7134 24.4273C50.7066 24.3508 50.6981 24.2743 50.689 24.1983C50.6845 24.153 50.6783 24.1071 50.6726 24.0612C50.6312 23.8056 50.5666 23.562 50.4986 23.3206C50.4306 23.0797 50.3587 22.8412 50.3014 22.5964C50.255 22.8559 50.2419 23.1183 50.2385 23.3772C50.1966 23.0072 50.1309 22.6423 50.1309 22.3555C50.1309 22.2071 50.1371 22.0648 50.1479 21.9249C50.1688 21.6455 50.2074 21.3786 50.247 21.1004C50.2669 20.9615 50.2873 20.8199 50.306 20.6731C50.306 20.7507 50.306 20.8278 50.3048 20.9054C50.3037 21.1525 50.2963 21.4035 50.2975 21.6546C50.2986 21.9056 50.3082 22.1572 50.3422 22.4054C50.4063 22.0382 50.5213 21.6886 50.6392 21.3355C50.6783 21.2177 50.7185 21.0998 50.7565 20.9808C50.8528 20.689 50.9452 20.3915 51.0273 20.0866C50.9865 20.5632 50.9061 20.9797 50.8256 21.3831C50.723 21.8982 50.6261 22.3839 50.6261 22.9449C50.6261 23.2067 50.6811 23.5019 50.7389 23.8153C50.7712 23.9909 50.8035 24.1677 50.8273 24.3411C50.8755 24.6262 50.9044 24.9225 50.8318 25.2234C50.7786 25.3968 50.697 25.5748 50.5559 25.7L50.4527 25.7958C50.417 25.8252 50.3745 25.8439 50.336 25.8683C50.2567 25.9159 50.1773 25.9629 50.0906 25.9862C50.0056 26.0196 49.9201 26.0451 49.8334 26.0649C49.5744 26.1244 49.3103 26.1324 49.0508 26.1454C48.7046 26.1278 48.351 26.1199 48.011 25.9862C47.9243 25.9629 47.8444 25.9159 47.7656 25.8683C47.7463 25.8564 47.7259 25.8451 47.7061 25.8337C47.6863 25.8224 47.667 25.8105 47.6489 25.7952L47.5457 25.7C47.4046 25.5748 47.3236 25.3968 47.2703 25.2234C47.1984 24.9254 47.2261 24.6313 47.2737 24.3485C47.2975 24.1728 47.3304 23.9938 47.3633 23.8164C47.378 23.7382 47.3922 23.6611 47.4052 23.5852C47.4449 23.358 47.476 23.1426 47.476 22.946C47.476 22.385 47.3791 21.8994 47.2766 21.3843C47.2125 21.055 47.1485 20.7173 47.1037 20.3478ZM43.621 54.0685C44.0075 54.0991 44.3877 54.1472 44.7691 54.1818L45.5295 54.2492L45.9075 54.2883L46.2866 54.315C46.5388 54.3325 46.7904 54.3518 47.0414 54.375C47.2924 54.3954 47.5446 54.4017 47.7956 54.417C48.2971 54.4555 48.7992 54.4566 49.3001 54.477C50.3026 54.4884 51.3044 54.4742 52.308 54.4062C53.3121 54.3382 54.3151 54.2345 55.3329 54.0441C54.7719 54.3779 54.1638 54.6187 53.5377 54.8034C53.162 54.9139 52.78 55.0046 52.3981 55.0834C51.373 55.2828 50.3275 55.3593 49.2848 55.348C48.7646 55.3248 48.2427 55.3106 47.7271 55.2403C47.5979 55.2233 47.4687 55.2097 47.3395 55.1944C47.2103 55.1791 47.0816 55.1621 46.9536 55.1378C46.6974 55.0924 46.4424 55.0431 46.188 54.9927C45.6774 54.9009 45.1816 54.7354 44.6835 54.6006C44.1916 54.4357 43.706 54.2526 43.2323 54.0441C43.3626 54.0503 43.4924 54.0583 43.621 54.0685Z" fill="#FF8D28"/>
<path d="M57.2867 40.2883C57.3632 40.7212 57.4397 41.1541 57.5123 41.5876C57.5848 42.0211 57.6534 42.4546 57.7134 42.8887C57.748 43.1052 57.7803 43.3222 57.8109 43.5392C57.9027 44.1898 57.9769 44.842 58.0308 45.4931C58.0874 46.1431 58.1209 46.7959 58.1039 47.4413C58.0982 47.6561 58.0869 47.8708 58.0693 48.0839C58.0495 48.2953 58.0223 48.5066 57.9849 48.7157C57.8908 49.2382 57.7299 49.7425 57.446 50.1766C57.3893 50.2633 57.3275 50.3472 57.2601 50.4282C56.7325 51.0867 55.8961 51.4539 55.0818 51.7842C55.1901 51.7599 55.2977 51.7344 55.4054 51.7077C55.7284 51.6273 56.0491 51.5315 56.3614 51.4006C56.673 51.272 56.9756 51.102 57.2476 50.8861C57.3383 50.8141 57.4256 50.737 57.5089 50.6543C57.8398 50.3234 58.0869 49.912 58.2586 49.4813C58.3441 49.2654 58.4138 49.0444 58.4699 48.8217C58.526 48.599 58.5691 48.3729 58.6008 48.1479C58.7414 47.2447 58.7198 46.3414 58.6796 45.4478C58.6292 44.5536 58.5204 43.6684 58.3946 42.7884C58.2608 41.9089 58.1016 41.0363 57.9276 40.1664C57.7412 39.2994 57.5582 38.433 57.3377 37.5751C56.9133 35.8564 56.4328 34.1524 55.8712 32.4717C56.1545 34.221 56.4889 35.955 56.8136 37.6884C56.9694 38.5565 57.1388 39.4207 57.2867 40.2883Z" fill="#FF8D28"/>
<path d="M46.2531 78.0901L49.2825 78.1105L52.3119 78.0913C53.3217 78.0709 54.3315 78.064 55.3413 78.0295C57.3609 77.9751 59.3811 77.8946 61.4007 77.7405C59.3811 77.5864 57.3609 77.5053 55.3413 77.4515C54.3315 77.4169 53.3217 77.4107 52.3119 77.3897L49.2825 77.3705L46.2531 77.3909C45.2433 77.4107 44.2335 77.4186 43.2237 77.4526C41.2041 77.507 39.184 77.5875 37.1644 77.7405C39.184 77.8941 41.2041 77.974 43.2237 78.0284C44.2335 78.0624 45.2433 78.0697 46.2531 78.0901Z" fill="#3F3F3F"/>
</svg>
